<?xml version="1.0" encoding="UTF-8"?>
<!DOCTYPE svg PUBLIC "-//W3C//DTD SVG 1.1//EN" "http://www.w3.org/Graphics/SVG/1.1/DTD/svg11.dtd">
<!-- Creator: CorelDRAW -->
<svg xmlns="http://www.w3.org/2000/svg" xml:space="preserve" width="211.667mm" height="211.667mm" style="shape-rendering:geometricPrecision; text-rendering:geometricPrecision; image-rendering:optimizeQuality; fill-rule:evenodd; clip-rule:evenodd"
viewBox="0 0 211.667 211.667"
 xmlns:xlink="http://www.w3.org/1999/xlink">
 <defs>
  <style type="text/css">
   <![CDATA[
    .str0 {stroke:#C8FFB2;stroke-width:5.4688;stroke-linecap:round;stroke-linejoin:round}
    .fil0 {fill:none}
   ]]>
  </style>
 </defs>
 <g id="Camada_x0020_1">
  <metadata id="CorelCorpID_0Corel-Layer"/>
  <g id="_562412360">
   <path id="Layer_17" class="fil0" d="M79.4493 99.4197c-0.0109,-0.0766 -0.0219,-0.1641 -0.0438,-0.2406 0,-0.0109 -0.0109,-0.0328 -0.0109,-0.0438 -0.0109,-0.0656 -0.0219,-0.1313 -0.0438,-0.1969l-0.0328 -0.1641c-0.0109,-0.0328 -0.0219,-0.0766 -0.0219,-0.1094l0 -0.0109c-0.0109,-0.0656 -0.0328,-0.1313 -0.0438,-0.1969l-0.0109 -0.0547 0 -0.0219c-0.0109,-0.0219 -0.0109,-0.0547 -0.0219,-0.0766 -0.0109,-0.0438 -0.0219,-0.0766 -0.0328,-0.1203 0,-0.0109 -0.0109,-0.0219 -0.0109,-0.0438 -0.0109,-0.0219 -0.0109,-0.0547 -0.0219,-0.0766l0 -0.0219c-0.0109,-0.0219 -0.0109,-0.0328 -0.0109,-0.0547 0,-0.0109 -0.0109,-0.0219 -0.0109,-0.0438 -0.0109,-0.0219 -0.0109,-0.0438 -0.0219,-0.0656 0,-0.0109 -0.0109,-0.0328 -0.0109,-0.0438 0,-0.0109 -0.0109,-0.0328 -0.0109,-0.0438l-0.0656 -0.1969c-0.0109,-0.0219 -0.0109,-0.0438 -0.0219,-0.0656 -0.0219,-0.0547 -0.0328,-0.0984 -0.0547,-0.1531 -0.0109,-0.0219 -0.0109,-0.0328 -0.0219,-0.0547 0,-0.0109 -0.0109,-0.0219 -0.0109,-0.0328 -0.0219,-0.0656 -0.0547,-0.1313 -0.0766,-0.2078 0,-0.0109 -0.0109,-0.0219 -0.0109,-0.0328 0,0 0,-0.0109 -0.0109,-0.0219 -0.0328,-0.0875 -0.0656,-0.1641 -0.1094,-0.2516 -0.0219,-0.0656 -0.0547,-0.1203 -0.0875,-0.1859 -0.0328,-0.0766 -0.0656,-0.1422 -0.0984,-0.2078 -0.0109,-0.0109 -0.0109,-0.0219 -0.0219,-0.0438 0,-0.0109 -0.0109,-0.0219 -0.0109,-0.0328 -0.0219,-0.0328 -0.0328,-0.0766 -0.0547,-0.1094 -0.0219,-0.0438 -0.0547,-0.0984 -0.0766,-0.1422 -0.0328,-0.0656 -0.0656,-0.1203 -0.0984,-0.1859 -0.0656,-0.1203 -0.1422,-0.2406 -0.2078,-0.35 -0.0328,-0.0547 -0.0766,-0.1203 -0.1094,-0.175 -0.0766,-0.1203 -0.1531,-0.2297 -0.2297,-0.3391 -0.1203,-0.1641 -0.2406,-0.3281 -0.3719,-0.4922 -0.0875,-0.1094 -0.175,-0.2078 -0.2625,-0.3172 -0.0875,-0.1094 -0.175,-0.2078 -0.2734,-0.3063 -0.0984,-0.0984 -0.1859,-0.1969 -0.2844,-0.2953 -0.0438,-0.0547 -0.0984,-0.0984 -0.1422,-0.1422 -1.9141,-1.8484 -4.5172,-2.9859 -7.3828,-2.9859 -3.2375,0 -6.1359,1.4547 -8.0938,3.7406 -0.0656,0.0766 -0.1313,0.1531 -0.1969,0.2406 -0.0547,0.0656 -0.1094,0.1422 -0.1641,0.2078 -0.0328,0.0438 -0.0656,0.0766 -0.0875,0.1203 -0.0109,0.0219 -0.0328,0.0328 -0.0438,0.0547l-0.0984 0.1313c-0.0109,0.0109 -0.0109,0.0219 -0.0219,0.0328 -0.0438,0.0656 -0.0875,0.1203 -0.1313,0.1859 -0.0328,0.0547 -0.0656,0.0984 -0.0984,0.1531 -0.0219,0.0328 -0.0438,0.0656 -0.0656,0.1094l-0.0109 0.0109c-0.0109,0.0219 -0.0219,0.0438 -0.0438,0.0656l-0.0328 0.0656c-0.0219,0.0438 -0.0547,0.0875 -0.0766,0.1203 -0.0109,0.0219 -0.0219,0.0328 -0.0328,0.0547l-0.0984 0.1641c-0.0109,0.0219 -0.0219,0.0547 -0.0438,0.0766 -0.0438,0.0766 -0.0875,0.1531 -0.1203,0.2297 -0.0219,0.0547 -0.0547,0.0984 -0.0766,0.1531 -0.0219,0.0438 -0.0438,0.0875 -0.0656,0.1422 -0.0219,0.0438 -0.0438,0.0984 -0.0656,0.1422 -0.0219,0.0438 -0.0438,0.0984 -0.0656,0.1422 -0.0219,0.0438 -0.0438,0.0984 -0.0656,0.1422 -0.0438,0.0984 -0.0766,0.1969 -0.1203,0.2844 -0.0766,0.1969 -0.1531,0.4047 -0.2188,0.6016 -0.0109,0.0438 -0.0219,0.0875 -0.0438,0.1203 -0.0219,0.0875 -0.0547,0.1859 -0.0766,0.2734 -0.0109,0.0547 -0.0328,0.1094 -0.0438,0.175 -0.0109,0.0547 -0.0328,0.1094 -0.0438,0.175 -0.0656,0.2734 -0.1203,0.5578 -0.1641,0.8422 -0.0219,0.175 -0.0547,0.3391 -0.0656,0.5141 -0.0438,0.3828 -0.0656,0.7656 -0.0656,1.1594 0,5.8625 4.7578,10.6203 10.6203,10.6203 5.1188,0 9.3953,-3.6313 10.4016,-8.4547 0.0109,-0.0766 0.0328,-0.1641 0.0438,-0.2406 0.0328,-0.1531 0.0547,-0.3172 0.0766,-0.4703 0.0219,-0.1531 0.0438,-0.3172 0.0547,-0.4813 0.0219,-0.2406 0.0328,-0.4813 0.0438,-0.7328l0 -0.2406c0,-0.4594 -0.0328,-0.8969 -0.0875,-1.3453 -0.0219,-0.1094 -0.0438,-0.2188 -0.0547,-0.3281l0.0001 0.0004zm102.605 -7.2953c-1.6406,-1.05 -3.5984,-1.6516 -5.6984,-1.6516 -2.8,0 -5.3484,1.0828 -7.2406,2.8547 -2.0781,1.9359 -3.3797,4.7031 -3.3797,7.7656 0,4.5281 2.8328,8.4 6.825,9.9203 1.1813,0.4484 2.4609,0.7 3.7953,0.7 5.7203,0 10.3906,-4.5281 10.6094,-10.1938 0.0109,-0.1422 0.0109,-0.2844 0.0109,-0.4266 0,-3.7734 -1.9688,-7.0875 -4.9219,-8.9688l0 0.0002z"/>
   <path id="Layer_18" class="fil0" d="M172.593 77.6431l0 6.2563 9.4609 8.2141c2.9641,1.8813 4.9219,5.1953 4.9219,8.9688 0,0.1422 0,0.2844 -0.0109,0.4266 5.7094,-1.2141 5.9281,-4.8125 5.9281,-4.8125l0 -19.0533c0,0 -19.8078,-0.1641 -20.3,0zm-125.42 21.2188l0 5.7859 -9.2859 0c-1.6625,0 -3.0188,1.3563 -3.0188,3.0188l0 3.3469 16.811 -0.0001 0 -11.7578c2.1219,0.1969 4.3859,0.4266 6.7266,0.6891 0.0219,-0.175 0.0438,-0.35 0.0656,-0.5141 0.0438,-0.2844 0.0984,-0.5688 0.1641,-0.8422 0.0109,-0.0547 0.0328,-0.1094 0.0438,-0.175 0.0109,-0.0547 0.0328,-0.1203 0.0438,-0.175 0.0219,-0.0875 0.0547,-0.1859 0.0766,-0.2734 0.0109,-0.0438 0.0219,-0.0875 0.0438,-0.1203 0.0656,-0.2078 0.1313,-0.4047 0.2188,-0.6016 0.0328,-0.0984 0.0766,-0.1969 0.1203,-0.2844 0.0219,-0.0438 0.0438,-0.0984 0.0656,-0.1422 0.0218,-0.0438 0.0438,-0.0984 0.0656,-0.1422 0.0109,-0.0219 0.0109,-0.0328 0.0219,-0.0547 0,-0.0109 0.0109,-0.0219 0.0219,-0.0328 0.0109,-0.0219 0.0109,-0.0328 0.0219,-0.0547 0.0219,-0.0438 0.0438,-0.0875 0.0656,-0.1422 0.0219,-0.0547 0.0547,-0.1094 0.0766,-0.1531 0.0438,-0.0766 0.0766,-0.1531 0.1203,-0.2297 0.0109,-0.0219 0.0219,-0.0547 0.0438,-0.0766 0.0328,-0.0547 0.0547,-0.1094 0.0984,-0.1641 0.0109,-0.0219 0.0219,-0.0328 0.0328,-0.0547 0,-0.0109 0.0109,-0.0219 0.0109,-0.0219l0.0656 -0.0984 0.0328 -0.0547c0.0109,-0.0219 0.0219,-0.0438 0.0438,-0.0656 0,0 0,-0.0109 0.0109,-0.0109 0,-0.0109 0.0109,-0.0109 0.0109,-0.0219 0.0219,-0.0328 0.0328,-0.0547 0.0547,-0.0875 0.0328,-0.0547 0.0656,-0.0984 0.0984,-0.1531 0.0438,-0.0656 0.0875,-0.1313 0.1313,-0.1859 0.0109,-0.0109 0.0109,-0.0219 0.0219,-0.0328l0.0984 -0.1313c0.0109,-0.0219 0.0219,-0.0328 0.0438,-0.0547 0.0328,-0.0438 0.0547,-0.0875 0.0875,-0.1203 0.0547,-0.0656 0.1094,-0.1422 0.1641,-0.2078 0.0656,-0.0766 0.1313,-0.1531 0.1969,-0.2406 -10.5656,0.7438 -19.7641,1.9797 -23.5156,4.0141 -0.0219,-0.0219 3.9266,0.1531 9.8,0.6234l-0.0004 0.0001zm118.562 2.2203c0,-3.0734 1.3016,-5.8297 3.3797,-7.7656l-28.2625 -10.9266 -19.2719 0 0 3.9266 5.8188 2.6141 0 2.9313 -12.5344 -1.2578 -6.7266 2.5922c0,0 -15.2688,-0.2734 -31.7953,0.2516l0.1422 0.1422c0.0984,0.0984 0.1969,0.1969 0.2844,0.2953 0.0875,0.0984 0.1859,0.1969 0.2734,0.3063 0.0875,0.1094 0.175,0.2078 0.2625,0.3172 0.1313,0.1641 0.2516,0.3281 0.3719,0.4922 0.0766,0.1094 0.1531,0.2297 0.2297,0.3391 0.0328,0.0547 0.0766,0.1203 0.1094,0.175 0.0766,0.1203 0.1422,0.2406 0.2078,0.35 0.0328,0.0656 0.0656,0.1203 0.0984,0.1859 0.0219,0.0438 0.0547,0.0984 0.0766,0.1422 0.0219,0.0328 0.0328,0.0766 0.0547,0.1094 0,0.0109 0.0109,0.0219 0.0109,0.0328 0.0109,0.0109 0.0109,0.0219 0.0219,0.0438 0.0328,0.0656 0.0656,0.1422 0.0984,0.2078 0.0328,0.0547 0.0547,0.1203 0.0875,0.1859 0.0328,0.0875 0.0766,0.1641 0.1094,0.2516 0,0.0109 0.0109,0.0109 0.0109,0.0219 0,0.011 0.0109,0.0219 0.0109,0.0328 0.0328,0.0656 0.0547,0.1313 0.0766,0.2078 0,0.0109 0.0109,0.0219 0.0109,0.0328 0.0109,0.0219 0.0109,0.0328 0.0219,0.0547 0.0219,0.0547 0.0328,0.0984 0.0547,0.1531 0.0109,0.0219 0.0109,0.0438 0.0219,0.0656l0.0656 0.1969c0.0109,0.0109 0.0109,0.0328 0.0109,0.0438 0.0109,0.0109 0.0109,0.0328 0.0109,0.0438 0.0109,0.0219 0.0109,0.0438 0.0219,0.0656 0,0.0109 0.0109,0.0219 0.0109,0.0438 0,0.0219 0.0109,0.0328 0.0109,0.0547l0 0.0219c0.0109,0.0219 0.0109,0.0547 0.0219,0.0766 0,0.0109 0.0109,0.0219 0.0109,0.0438 0.0109,0.0438 0.0219,0.0766 0.0328,0.1203 0.0109,0.0219 0.0109,0.0547 0.0219,0.0766l0 0.0219 0.0109 0.0547c0.0219,0.0656 0.0328,0.1313 0.0438,0.1969l0 0.0109c0.0109,0.0328 0.0219,0.0766 0.0219,0.1094l0.0328 0.1641c0.0109,0.0656 0.0219,0.1313 0.0438,0.1969 0,0.0109 0,0.0328 0.0109,0.0438 0.0109,0.0766 0.0328,0.1641 0.0438,0.2406 0.0109,0.1094 0.0328,0.2188 0.0438,0.3281 0.0547,0.4375 0.0875,0.8859 0.0875,1.3453l0 0.2406c-0.0109,0.2406 -0.0219,0.4922 -0.0438,0.7328 -0.0109,0.1641 -0.0328,0.3172 -0.0547,0.4813 -0.0219,0.1531 -0.0438,0.3172 -0.0766,0.4703 -0.0109,0.0766 -0.0328,0.1641 -0.0438,0.2406 8.3125,1.8813 15.0391,4.3969 16.7563,7.7547l76.4423 -0.0007c-3.9594,-1.5313 -6.7922,-5.4031 -6.7922,-9.9313l0 0.0001z"/>
   <g id="STROKES">
    <path id="_562414832" class="fil0 str0" d="M76.343 93.4478c-1.9141,-1.8484 -4.5172,-2.9859 -7.3828,-2.9859 -3.2375,0 -6.1359,1.4547 -8.0938,3.7406 -1.3453,1.575 -2.2313,3.5547 -2.4719,5.7313 -0.0438,0.3828 -0.0656,0.7656 -0.0656,1.1594 0,5.8625 4.7578,10.6203 10.6203,10.6203 5.1188,0 9.3953,-3.6313 10.4016,-8.4547 0.1422,-0.7 0.2188,-1.4219 0.2188,-2.1766 0.0109,-2.9969 -1.2359,-5.6984 -3.2266,-7.6344zm-6.639 7.9844c-0.1313,0.2844 -0.4156,0.4703 -0.7438,0.4703 -0.4156,0 -0.7656,-0.3063 -0.8203,-0.7109 0,-0.0328 -0.0109,-0.0766 -0.0109,-0.1094 0,-0.4594 0.3719,-0.8203 0.8203,-0.8203 0.4594,0 0.8203,0.3719 0.8203,0.8203 0.0109,0.1313 -0.0219,0.2516 -0.0656,0.35z"/>
    <path id="_562414760" class="fil0 str0" d="M177.176 101.082c0,0.4594 -0.3719,0.8203 -0.8203,0.8203 -0.4594,0 -0.8203,-0.3719 -0.8203,-0.8203 0,-0.4594 0.3719,-0.8203 0.8203,-0.8203 0.4484,0 0.8203,0.3719 0.8203,0.8203z"/>
    <path id="_562415120" class="fil0 str0" d="M177.176 101.082c0,0.4594 -0.3719,0.8203 -0.8203,0.8203 -0.4594,0 -0.8203,-0.3719 -0.8203,-0.8203 0,-0.4594 0.3719,-0.8203 0.8203,-0.8203 0.4484,0 0.8203,0.3719 0.8203,0.8203z"/>
    <line id="_562415072" class="fil0 str0" x1="34.8571" y1="111.013" x2="30.3508" y2= "111.013" />
    <path id="_562414544" class="fil0 str0" d="M60.8665 94.2025c-1.3453,1.575 -2.2313,3.5547 -2.4719,5.7313 -2.3406,-0.2625 -4.6047,-0.4922 -6.7266,-0.6891l0 11.7688 -16.8109 -0.0001 0 -3.3578c0,-1.6625 1.3563,-3.0188 3.0188,-3.0188l9.2859 0.0001 0 -5.7859c-5.8625,-0.4703 -9.8219,-0.6453 -9.8219,-0.6453 3.7625,-2.0234 12.9609,-3.2594 23.5266,-4.0031l0 -0.0001z"/>
    <path id="_562414880" class="fil0 str0" d="M69.7805 101.082c0,0.1313 -0.0328,0.2406 -0.0766,0.35 -0.1313,0.2844 -0.4156,0.4703 -0.7438,0.4703 -0.4156,0 -0.7656,-0.3063 -0.8203,-0.7109 0,-0.0328 -0.0109,-0.0766 -0.0109,-0.1094 0,-0.4594 0.3719,-0.8203 0.8203,-0.8203 0.4594,0 0.8313,0.3719 0.8313,0.8203z"/>
    <path id="_562415048" class="fil0 str0" d="M172.56 111.013l-76.4422 0c-1.7281,-3.3578 -8.4438,-5.8734 -16.7672,-7.7547 0.1422,-0.7 0.2188,-1.4219 0.2188,-2.1656 0,-2.9969 -1.2469,-5.7094 -3.2375,-7.6344 16.5266,-0.525 31.7953,-0.2516 31.7953,-0.2516l6.7266 -2.5922 12.5344 1.2578 0 -2.9313 -5.8188 -2.6141 0 -3.9375 19.2719 0.0002 28.2625 10.9266c-2.0781,1.9359 -3.3797,4.7031 -3.3797,7.7766 0.0109,4.5172 2.8438,8.3891 6.8359,9.9203l0 -0.0001z"/>
    <path id="_562414472" class="fil0 str0" d="M177.176 101.082c0,0.4594 -0.3719,0.8203 -0.8203,0.8203 -0.4594,0 -0.8203,-0.3719 -0.8203,-0.8203 0,-0.4594 0.3719,-0.8203 0.8203,-0.8203 0.4484,0 0.8203,0.3719 0.8203,0.8203z"/>
    <line id="_562415024" class="fil0 str0" x1="127.399" y1="91.8619" x2="156.066" y2= "99.2885" />
    <polyline id="_562414136" class="fil0 str0" points="108.138,93.1962 108.138,100.951 116.724,105.031 "/>
    <line id="_562414016" class="fil0 str0" x1="96.118" y1="111.013" x2="86.4274" y2= "111.013" />
    <path id="_562413968" class="fil0 str0" d="M182.054 92.1134c-1.6406,-1.05 -3.5984,-1.6516 -5.6984,-1.6516 -2.8,0 -5.3375,1.0828 -7.2406,2.8547 -2.0781,1.9359 -3.3797,4.7031 -3.3797,7.7766 0,4.5281 2.8328,8.4 6.825,9.9203 1.1813,0.4484 2.4609,0.7 3.7953,0.7 5.7203,0 10.3906,-4.5281 10.6094,-10.1938 0.0109,-0.1422 0.0109,-0.2844 0.0109,-0.4266 0,-3.7734 -1.9688,-7.0875 -4.9219,-8.9797l0 0.0001zm-5.6985 9.8c-0.4594,0 -0.8203,-0.3719 -0.8203,-0.8203 0,-0.4594 0.3719,-0.8203 0.8203,-0.8203 0.4594,0 0.8203,0.3719 0.8203,0.8203 0,0.4484 -0.3719,0.8203 -0.8203,0.8203z"/>
    <path id="_562413824" class="fil0 str0" d="M192.893 77.6431l0 19.0531c0,0 -0.2297,3.5984 -5.9391,4.8125 0.0109,-0.1422 0.0109,-0.2844 0.0109,-0.4266 0,-3.7734 -1.9688,-7.0766 -4.9219,-8.9688l-9.4609 -8.2141 0 -6.2563c0.5031,-0.1641 20.3109,0 20.3109,0l0.0001 0.0002z"/>
   </g>
  </g>
 </g>
</svg>
